<?xml version="1.0" standalone="no"?><!DOCTYPE svg PUBLIC "-//W3C//DTD SVG 1.1//EN" "http://www.w3.org/Graphics/SVG/1.1/DTD/svg11.dtd"><svg t="1670164053498" class="icon" viewBox="0 0 1024 1024" version="1.1" xmlns="http://www.w3.org/2000/svg" p-id="7559" xmlns:xlink="http://www.w3.org/1999/xlink" width="200" height="200"><path d="M301.017 959.448c-10.826 0-21.38-4.52-28.955-12.399-7.484-7.788-11.5-18.015-11.308-28.79 0.192-10.762 4.568-20.794 12.322-28.244l394.198-379.844-395.803-374.416c-16.155-15.317-16.873-40.907-1.587-57.029 7.726-8.15 18.158-12.639 29.37-12.639 10.34 0 20.166 3.92 27.672 11.037L753.107 480.23c12.326 11.628 15.509 30.12 7.99 46.127a28.623 28.623 0 0 0-1.835 2.951 118.3 118.3 0 0 0-1.779 3.287c-0.822 1.557-1.605 3.041-2.25 3.898a31.153 31.153 0 0 0-1.908 1.68 21.733 21.733 0 0 0-3.531 4.228l-420.86 405.684c-7.553 7.347-17.449 11.363-27.917 11.363z" p-id="7560"></path></svg>